Coordinates
version=1
nRows=10
nColumns=63
inDegrees=yes

Units are S.I. units (second, meters, Newtons, ...)
If the header above contains a line with 'inDegrees', this indicates whether rotational values are in degrees (yes) or radians (no).

endheader
time	pelvis_tilt	pelvis_list	pelvis_rotation	pelvis_tx	pelvis_ty	pelvis_tz	hip_flexion_r	hip_adduction_r	hip_rotation_r	knee_angle_r	knee_angle_r_beta	ankle_angle_r	subtalar_angle_r	mtp_angle_r	hip_flexion_l	hip_adduction_l	hip_rotation_l	knee_angle_l	knee_angle_l_beta	ankle_angle_l	subtalar_angle_l	mtp_angle_l	L5_S1_Flex_Ext	L5_S1_Lat_Bending	L5_S1_axial_rotation	L4_L5_Flex_Ext	L4_L5_Lat_Bending	L4_L5_axial_rotation	L3_L4_Flex_Ext	L3_L4_Lat_Bending	L3_L4_axial_rotation	L2_L3_Flex_Ext	L2_L3_Lat_Bending	L2_L3_axial_rotation	L1_L2_Flex_Ext	L1_L2_Lat_Bending	L1_L2_axial_rotation	L1_T12_Flex_Ext	L1_T12_Lat_Bending	L1_T12_axial_rotation	Abs_r3	Abs_r2	Abs_r1	Abs_t1	Abs_t2	neck_flexion	neck_bending	neck_rotation	arm_flex_r	arm_add_r	arm_rot_r	elbow_flex_r	pro_sup_r	wrist_flex_r	wrist_dev_r	arm_flex_l	arm_add_l	arm_rot_l	elbow_flex_l	pro_sup_l	wrist_flex_l	wrist_dev_l
      2.36666667	     -1.72763808	     -6.40276560	     80.16766115	      0.26178745	      0.95678808	      0.56528066	      8.03976822	     -0.97054573	      8.22027535	     15.04756374	      0.26262953	     36.77873391	     -2.73971414	      0.00000000	      2.68800724	      3.81628049	      0.49239684	      7.08258879	      0.12361449	     33.09328376	     -8.76022244	      0.00000000	      0.26847841	      0.00470997	      1.50961543	      0.49859125	      0.00626426	      1.60396640	      0.44108317	      0.01145182	      1.60396640	      0.30684397	      0.01145182	      1.32091351	      0.24930905	      0.00960457	      1.22656254	      0.15340856	      0.00729574	      1.13221158	      1.91771441	      0.05328013	      8.39602816	      0.00000000	      0.00000000	     18.72414086	     -3.95479793	     -9.43117129	     11.50492413	     -7.08840886	     57.30696945	     34.99427184	     59.66580627	      7.04821281	      7.01205650	     19.16551200	     -6.26335675	     86.17837857	     39.63428647	     37.44479463	     -5.63763505	     -6.52850784
      2.38333333	     -1.68093023	     -6.32027420	     80.59501231	      0.26068462	      0.95742651	      0.56569659	      7.80016236	     -1.09718476	      7.25242508	     14.78715151	      0.25808448	     36.73146930	     -2.00574956	      0.00000000	      2.61492275	      3.83704706	      0.91675789	      7.04587734	      0.12297376	     32.82383340	     -8.86627752	      0.00000000	      0.27359176	     -0.04213578	      1.58869805	      0.50808725	     -0.05604059	      1.68799168	      0.44948389	     -0.10244894	      1.68799168	      0.31268802	     -0.10244894	      1.39011079	      0.25405730	     -0.08592329	      1.29081717	      0.15633033	     -0.06526833	      1.19152354	      1.95423855	     -0.47664840	      8.83586194	      0.00000000	      0.00000000	     17.35882799	     -3.45211162	    -11.75046459	     12.02423398	     -7.12315897	     59.45614498	     34.44682584	     59.09320887	      6.34403666	      5.22606776	     21.17085478	     -5.75879279	     92.73029267	     39.15197213	     29.03080809	     -4.55751568	     -8.16875397
      2.40000000	     -1.63049823	     -6.24029494	     81.12587024	      0.25961630	      0.95801584	      0.56583648	      7.55572975	     -1.14620652	      6.83828871	     14.59212058	      0.25468055	     36.53531998	     -2.16228622	      0.00000000	      2.57352185	      3.82862307	      1.25587237	      7.11474954	      0.12417580	     32.76011559	     -8.60858921	      0.00000000	      0.27109175	     -0.08825010	      1.66720701	      0.50344450	     -0.11737263	      1.77140745	      0.44537664	     -0.21457130	      1.77140745	      0.30983076	     -0.21457130	      1.45880614	      0.25173580	     -0.17995961	      1.35460570	      0.15490183	     -0.13669941	      1.25040526	      1.93638129	     -0.99830280	      9.27250525	      0.00000000	      0.00000000	     16.25289917	     -3.01015077	    -14.14840046	     11.99556270	     -7.03147467	     59.65430761	     34.08829667	     58.40330009	      6.26857768	      4.73505742	     22.29575572	     -5.33585792	     95.28466869	     38.61893826	     28.15435911	     -3.15777907	     -6.85748273
      2.41666667	     -1.54305799	     -6.20592209	     81.52734333	      0.25870414	      0.95855280	      0.56547206	      7.38030983	     -1.13287904	      6.57669387	     14.47510963	      0.25263832	     36.41279114	     -2.30593747	      0.00000000	      2.49549164	      3.78184555	      1.48328320	      7.08544320	      0.12366431	     32.68759839	     -8.40511151	      0.00000000	      0.28173466	     -0.11459128	      1.70678222	      0.52320943	     -0.15240640	      1.81345610	      0.46286186	     -0.27861723	      1.81345610	      0.32199454	     -0.27861723	      1.49343444	      0.26161880	     -0.23367453	      1.38676055	      0.16098318	     -0.17750189	      1.28008666	      2.01240247	     -1.29627946	      9.49261065	      0.00000000	      0.00000000	     15.34409607	     -2.06592262	    -15.03321759	     11.94806604	     -6.91490962	     59.75246593	     33.78256251	     58.09764195	      6.30119639	      4.83454125	     22.72667408	     -5.08952292	     96.18731958	     38.25719351	     27.89182915	     -2.66525313	     -6.21478894
      2.43333333	     -1.47975885	     -6.13798586	     81.93406749	      0.25784340	      0.95907380	      0.56532301	      7.26818887	     -1.11741601	      6.39933466	     14.52037496	      0.25342835	     36.29386549	     -2.69408619	      0.00000000	      2.45650198	      3.74295381	      1.49442140	      7.18110951	      0.12533400	     32.75411349	     -7.86870578	      0.00000000	      0.26766734	     -0.14831054	      1.81142581	      0.49708503	     -0.19725302	      1.92463992	      0.43975068	     -0.36060226	      1.92463992	      0.30591701	     -0.36060226	      1.58499758	      0.24855590	     -0.30243486	      1.47178347	      0.15294512	     -0.22973303	      1.35856936	      1.91192108	     -1.67771853	     10.07460693	      0.00000000	      0.00000000	     14.92203710	     -1.88364940	    -17.30210784	     11.70553527	     -6.96843255	     59.55545982	     33.86534797	     53.68365273	      6.27751167	      5.24593860	     24.13367255	     -4.47357557	    100.15260128	     37.59421887	     23.90222371	     -0.55920235	     -6.66416780
      2.45000000	     -1.37544936	     -6.15600637	     82.06500198	      0.25700076	      0.95942328	      0.56500177	      7.29269003	     -1.05773058	      6.30651571	     14.58871886	      0.25462118	     36.25143081	     -2.75223913	      0.00000000	      2.45329114	      3.68153309	      1.57484283	      7.20701509	      0.12578614	     32.70739887	     -7.79945199	      0.00000000	      0.26504912	     -0.14819275	      1.82359397	      0.49222272	     -0.19709635	      1.93756859	      0.43544920	     -0.36031584	      1.93756859	      0.30292464	     -0.36031584	      1.59564472	      0.24612461	     -0.30219465	      1.48167010	      0.15144907	     -0.22955056	      1.36769548	      1.89321937	     -1.67638599	     10.14228258	      0.00000000	      0.00000000	     14.85298943	     -1.63992586	    -17.43614119	     11.76723534	     -7.00277679	     59.51067329	     33.86142445	     53.63728931	      6.28951233	      5.17711673	     24.30669060	     -4.47707683	    100.00248203	     37.59503147	     23.88408732	     -0.56627195	     -6.67167697
      2.46666667	     -1.23089862	     -6.25997224	     82.75947067	      0.25552206	      0.95953759	      0.56423168	      7.37529470	     -0.98098876	      5.72707148	     14.78866981	      0.25811098	     36.25657468	     -3.08048211	      0.00000000	      2.66790240	      3.57694832	      1.93835722	      7.55036381	      0.13177871	     32.87604664	     -7.43679741	      0.00000000	      0.26595465	     -0.15433983	      1.66195799	      0.49390438	     -0.20527198	      1.76583036	      0.43693690	     -0.37526187	      1.76583036	      0.30395957	     -0.37526187	      1.45421324	      0.24696549	     -0.31472979	      1.35034087	      0.15196649	     -0.23907240	      1.24646849	      1.89968748	     -1.74592307	      9.24331174	      0.00000000	      0.00000000	     15.35363140	     -0.90055642	    -18.00079025	     11.75216198	     -6.83040760	     59.37353323	     33.72567208	     52.85345065	      6.61796933	      4.21646553	     23.81500783	     -5.04616819	     97.62908661	     38.07895954	     24.43255395	     -0.70243018	     -6.30796965
      2.48333333	     -1.03953034	     -6.40598611	     82.88764696	      0.25449763	      0.95943141	      0.56352598	      7.61201454	     -0.84533897	      5.36405738	     15.05928048	      0.26283403	     36.45970803	     -2.76486977	      0.00000000	      2.79971814	      3.40600249	      1.58583649	      7.65539333	      0.13361182	     33.01865057	     -6.84552976	      0.00000000	      0.26555561	     -0.12893679	      1.41268518	      0.49316333	     -0.17148593	      1.50097800	      0.43628132	     -0.31349690	      1.50097800	      0.30350351	     -0.31349690	      1.23609953	      0.24659494	     -0.26292789	      1.14780671	      0.15173848	     -0.19972308	      1.05951389	      1.89683719	     -1.45855871	      7.85693117	      0.00000000	      0.00000000	     16.19633686	     -0.05494913	    -16.01969248	     12.94011396	     -6.81155844	     63.11682739	     33.44578552	     50.15794122	      6.76126814	      2.90622924	     21.38093363	     -6.32734633	     87.96143913	     39.01689951	     34.76308116	     -0.99536153	     -2.87303509
      2.50000000	     -0.79346794	     -6.53805776	     82.86143704	      0.25382826	      0.95914559	      0.56277539	      7.87539445	     -0.58936266	      5.27662726	     15.39870412	      0.26875809	     36.57702883	     -2.85533692	      0.00000000	      2.83665345	      3.18701283	      1.56548437	      7.62866069	      0.13314525	     33.03134487	     -6.91474095	      0.00000000	      0.25492207	     -0.10979639	      1.33892244	      0.47341577	     -0.14602920	      1.42260510	      0.41881147	     -0.26695895	      1.42260510	      0.29135043	     -0.26695895	      1.17155714	      0.23672063	     -0.22389681	      1.08787448	      0.14566247	     -0.17007462	      1.00419183	      1.82088285	     -1.24203878	      7.44668495	      0.00000000	      0.00000000	     17.29448054	      0.49116654	    -15.47335838	     13.08149875	     -6.91050983	     63.09472386	     33.77145279	     50.03671976	      6.99122013	      2.61708393	     21.14512765	     -6.98737245	     86.76667432	     39.94672466	     34.96223701	     -0.85903156	     -3.46965027
      2.51666667	     -0.66919117	     -6.79348750	     83.07200458	      0.25277324	      0.95860230	      0.56173875	      8.25253845	     -0.47621921	      5.18958011	     15.75099999	      0.27490681	     36.84378044	     -2.95656892	      0.00000000	      3.03796607	      3.13193634	      2.19108042	      7.64399115	      0.13341281	     32.69926012	     -7.72119592	      0.00000000	      0.26676467	     -0.08263596	      0.94776519	      0.49540867	     -0.10990583	      1.00700051	      0.43826768	     -0.20092108	      1.00700051	      0.30488534	     -0.20092108	      0.82929454	      0.24771767	     -0.16851126	      0.77005921	      0.15242933	     -0.12800311	      0.71082389	      1.90547338	     -0.93479455	      5.27118563	      0.00000000	      0.00000000	     18.43751125	      2.19340817	    -11.16133478	     14.74812755	     -6.57171828	     68.47528721	     33.10278021	     46.12840468	      7.39283504	      1.32987196	     17.10872124	     -8.19615379	     73.34762414	     41.49757056	     49.68093428	      0.13110341	      0.46332273
